# xmcd CD database file
#
# Track frame offsets:
#	150
#	22878
#	58375
#	77746
#	99828
#	129438
#	157711
#	189050
#
# Disc length: 2945 seconds
#
# Revision: 0
# Processed by: cddbd v1.5.1PL2 Copyright (c) Steve Scherf et al.
# Submitted via: CDex 1.51
#
DISCID=4f0b7f08
DTITLE=Bart van Lier and Metropole Orchrstra - Twilight
DYEAR=1900
DGENRE=Jazz
TTITLE0=I hear a rhapsody
TTITLE1=Introduction and riffs
TTITLE2=Light and shadow
TTITLE3=Never let me go
TTITLE4=Twilight
TTITLE5=You'd be so nice to come home to
TTITLE6=Impromptu
TTITLE7=Just say Joe
EXTD=
EXTT0=
EXTT1=
EXTT2=
EXTT3=
EXTT4=
EXTT5=
EXTT6=
EXTT7=
PLAYORDER=
